<mxfile host="Electron" modified="2024-06-05T22:34:45.154Z" agent="Mozilla/5.0 (Windows NT 10.0; Win64; x64) AppleWebKit/537.36 (KHTML, like Gecko) draw.io/24.1.0 Chrome/120.0.6099.109 Electron/28.1.0 Safari/537.36" etag="wYePQp9_UOcbj-a4mpuB" version="24.1.0" type="device">
  <diagram name="Страница — 1" id="tTTT7lDbj0AzXVJ5Z_Ju">
    <mxGraphModel dx="1154" dy="582" grid="1" gridSize="10" guides="1" tooltips="1" connect="1" arrows="1" fold="1" page="1" pageScale="1" pageWidth="827" pageHeight="1169" math="0" shadow="0">
      <root>
        <mxCell id="0" />
        <mxCell id="1" parent="0" />
        <mxCell id="YhXAwPTHWb4so9bpkjYg-1" style="edgeStyle=orthogonalEdgeStyle;rounded=0;orthogonalLoop=1;jettySize=auto;html=1;exitX=0;exitY=1;exitDx=0;exitDy=0;entryX=0.5;entryY=0;entryDx=0;entryDy=0;" parent="1" source="eu__VUVs-O8cIbxZYUX1-1" target="eu__VUVs-O8cIbxZYUX1-5" edge="1">
          <mxGeometry relative="1" as="geometry" />
        </mxCell>
        <mxCell id="eu__VUVs-O8cIbxZYUX1-1" value="&lt;font face=&quot;Times New Roman&quot;&gt;&lt;font style=&quot;font-size: 14px;&quot;&gt;&lt;br&gt;Исток&lt;br&gt;(Начало&lt;br&gt;рассмотрения &lt;br&gt;процесса)&lt;/font&gt;&lt;br&gt;&lt;/font&gt;" style="ellipse;whiteSpace=wrap;html=1;aspect=fixed;" parent="1" vertex="1">
          <mxGeometry x="520" y="30" width="130" height="130" as="geometry" />
        </mxCell>
        <mxCell id="eu__VUVs-O8cIbxZYUX1-2" value="" style="triangle;whiteSpace=wrap;html=1;direction=south;strokeColor=default;gradientColor=none;fillColor=#000000;" parent="1" vertex="1">
          <mxGeometry x="570" y="40" width="29.33" height="20" as="geometry" />
        </mxCell>
        <mxCell id="YhXAwPTHWb4so9bpkjYg-6" style="edgeStyle=orthogonalEdgeStyle;rounded=0;orthogonalLoop=1;jettySize=auto;html=1;exitX=1;exitY=1;exitDx=0;exitDy=0;" parent="1" source="eu__VUVs-O8cIbxZYUX1-5" edge="1">
          <mxGeometry relative="1" as="geometry">
            <mxPoint x="540" y="390" as="targetPoint" />
          </mxGeometry>
        </mxCell>
        <mxCell id="eu__VUVs-O8cIbxZYUX1-5" value="&lt;font face=&quot;Times New Roman&quot;&gt;&lt;span style=&quot;font-size: 14px;&quot;&gt;Запустили приложение&lt;/span&gt;&lt;/font&gt;" style="ellipse;whiteSpace=wrap;html=1;aspect=fixed;" parent="1" vertex="1">
          <mxGeometry x="429.65999999999997" y="200" width="130" height="130" as="geometry" />
        </mxCell>
        <mxCell id="wRYcbDbW16RMZCIpdBNf-7" style="edgeStyle=orthogonalEdgeStyle;rounded=0;orthogonalLoop=1;jettySize=auto;html=1;exitX=0;exitY=1;exitDx=0;exitDy=0;" parent="1" source="eu__VUVs-O8cIbxZYUX1-7" edge="1">
          <mxGeometry relative="1" as="geometry">
            <mxPoint x="628.9069767441861" y="390" as="targetPoint" />
          </mxGeometry>
        </mxCell>
        <mxCell id="eu__VUVs-O8cIbxZYUX1-7" value="&lt;font face=&quot;Times New Roman&quot; style=&quot;font-size: 14px;&quot;&gt;Открыто окно программы&lt;/font&gt;" style="ellipse;whiteSpace=wrap;html=1;aspect=fixed;" parent="1" vertex="1">
          <mxGeometry x="610" y="200" width="130" height="130" as="geometry" />
        </mxCell>
        <mxCell id="eu__VUVs-O8cIbxZYUX1-57" value="" style="endArrow=none;html=1;rounded=0;strokeWidth=4;" parent="1" edge="1">
          <mxGeometry width="50" height="50" relative="1" as="geometry">
            <mxPoint x="529.66" y="390" as="sourcePoint" />
            <mxPoint x="639.66" y="390" as="targetPoint" />
            <Array as="points" />
          </mxGeometry>
        </mxCell>
        <mxCell id="eu__VUVs-O8cIbxZYUX1-61" style="edgeStyle=orthogonalEdgeStyle;rounded=0;orthogonalLoop=1;jettySize=auto;html=1;" parent="1" edge="1">
          <mxGeometry relative="1" as="geometry">
            <mxPoint x="584" y="440" as="targetPoint" />
            <mxPoint x="584.1600000000001" y="440" as="sourcePoint" />
            <Array as="points">
              <mxPoint x="584" y="390" />
              <mxPoint x="584" y="390" />
            </Array>
          </mxGeometry>
        </mxCell>
        <mxCell id="wRYcbDbW16RMZCIpdBNf-15" style="edgeStyle=orthogonalEdgeStyle;rounded=0;orthogonalLoop=1;jettySize=auto;html=1;exitX=1;exitY=1;exitDx=0;exitDy=0;" parent="1" source="eu__VUVs-O8cIbxZYUX1-60" edge="1">
          <mxGeometry relative="1" as="geometry">
            <mxPoint x="630.1428571428571" y="600.0000000000001" as="targetPoint" />
          </mxGeometry>
        </mxCell>
        <mxCell id="cQnQrmi3rN2C49d9GW_u-6" style="edgeStyle=orthogonalEdgeStyle;rounded=0;orthogonalLoop=1;jettySize=auto;html=1;exitX=0;exitY=0.5;exitDx=0;exitDy=0;" edge="1" parent="1" source="eu__VUVs-O8cIbxZYUX1-60">
          <mxGeometry relative="1" as="geometry">
            <mxPoint x="519.1034482758621" y="600" as="targetPoint" />
            <Array as="points">
              <mxPoint x="520" y="550" />
              <mxPoint x="520" y="550" />
            </Array>
          </mxGeometry>
        </mxCell>
        <mxCell id="eu__VUVs-O8cIbxZYUX1-60" value="&lt;font face=&quot;Times New Roman&quot;&gt;&lt;span style=&quot;font-size: 14px;&quot;&gt;Выбираем действие&lt;/span&gt;&lt;/font&gt;" style="ellipse;whiteSpace=wrap;html=1;aspect=fixed;" parent="1" vertex="1">
          <mxGeometry x="519.3299999999998" y="440" width="130" height="130" as="geometry" />
        </mxCell>
        <mxCell id="8ZdpIB1KfxX4hMsNmirL-2" value="" style="ellipse;whiteSpace=wrap;html=1;aspect=fixed;fillColor=#000000;" parent="1" vertex="1">
          <mxGeometry x="642.5" y="3190" width="30" height="30" as="geometry" />
        </mxCell>
        <mxCell id="8ZdpIB1KfxX4hMsNmirL-3" value="" style="ellipse;whiteSpace=wrap;html=1;aspect=fixed;fillColor=#000000;" parent="1" vertex="1">
          <mxGeometry x="672.5" y="3190" width="30" height="30" as="geometry" />
        </mxCell>
        <mxCell id="8ZdpIB1KfxX4hMsNmirL-4" value="" style="triangle;whiteSpace=wrap;html=1;direction=west;strokeColor=default;gradientColor=none;fillColor=#000000;rotation=90;" parent="1" vertex="1">
          <mxGeometry x="377.17499999999995" y="3237.005" width="20" height="29.33" as="geometry" />
        </mxCell>
        <mxCell id="8ZdpIB1KfxX4hMsNmirL-5" value="" style="triangle;whiteSpace=wrap;html=1;direction=south;strokeColor=default;gradientColor=none;fillColor=#000000;" parent="1" vertex="1">
          <mxGeometry x="372.51" y="3200" width="29.33" height="20" as="geometry" />
        </mxCell>
        <mxCell id="8ZdpIB1KfxX4hMsNmirL-6" value="" style="rounded=0;whiteSpace=wrap;html=1;fillColor=#000000;" parent="1" vertex="1">
          <mxGeometry x="652.5" y="3247" width="30" height="30" as="geometry" />
        </mxCell>
        <mxCell id="8ZdpIB1KfxX4hMsNmirL-29" value="&lt;font face=&quot;Times New Roman&quot;&gt;Начало процесса&lt;/font&gt;" style="text;html=1;align=center;verticalAlign=middle;resizable=0;points=[];autosize=1;strokeColor=none;fillColor=none;" parent="1" vertex="1">
          <mxGeometry x="407.5" y="3195" width="110" height="30" as="geometry" />
        </mxCell>
        <mxCell id="8ZdpIB1KfxX4hMsNmirL-30" value="&lt;font face=&quot;Times New Roman&quot;&gt;Конец процесса&lt;/font&gt;" style="text;html=1;align=center;verticalAlign=middle;resizable=0;points=[];autosize=1;strokeColor=none;fillColor=none;" parent="1" vertex="1">
          <mxGeometry x="412.5" y="3237" width="100" height="30" as="geometry" />
        </mxCell>
        <mxCell id="8ZdpIB1KfxX4hMsNmirL-31" value="" style="ellipse;whiteSpace=wrap;html=1;aspect=fixed;fillColor=#000000;" parent="1" vertex="1">
          <mxGeometry x="372.51" y="3287" width="30" height="30" as="geometry" />
        </mxCell>
        <mxCell id="8ZdpIB1KfxX4hMsNmirL-33" value="&lt;font face=&quot;Times New Roman&quot;&gt;Устойчивое состояние&lt;/font&gt;" style="text;html=1;align=center;verticalAlign=middle;resizable=0;points=[];autosize=1;strokeColor=none;fillColor=none;" parent="1" vertex="1">
          <mxGeometry x="402.51" y="3287" width="140" height="30" as="geometry" />
        </mxCell>
        <mxCell id="8ZdpIB1KfxX4hMsNmirL-34" value="&lt;font face=&quot;Times New Roman&quot;&gt;Измененное состояние&lt;/font&gt;" style="text;html=1;align=center;verticalAlign=middle;resizable=0;points=[];autosize=1;strokeColor=none;fillColor=none;" parent="1" vertex="1">
          <mxGeometry x="710.02" y="3190" width="140" height="30" as="geometry" />
        </mxCell>
        <mxCell id="8ZdpIB1KfxX4hMsNmirL-35" value="&lt;font face=&quot;Times New Roman&quot;&gt;Метод / процесс / действие&lt;/font&gt;" style="text;html=1;align=center;verticalAlign=middle;resizable=0;points=[];autosize=1;strokeColor=none;fillColor=none;" parent="1" vertex="1">
          <mxGeometry x="707.52" y="3247" width="160" height="30" as="geometry" />
        </mxCell>
        <mxCell id="8ZdpIB1KfxX4hMsNmirL-36" value="" style="endArrow=classic;html=1;rounded=0;" parent="1" edge="1">
          <mxGeometry width="50" height="50" relative="1" as="geometry">
            <mxPoint x="382.5" y="3349.57" as="sourcePoint" />
            <mxPoint x="412.5" y="3349.57" as="targetPoint" />
          </mxGeometry>
        </mxCell>
        <mxCell id="8ZdpIB1KfxX4hMsNmirL-37" value="&lt;font face=&quot;Times New Roman&quot;&gt;Направление сети Петри&lt;/font&gt;" style="text;html=1;align=center;verticalAlign=middle;resizable=0;points=[];autosize=1;strokeColor=none;fillColor=none;" parent="1" vertex="1">
          <mxGeometry x="417.5" y="3335" width="150" height="30" as="geometry" />
        </mxCell>
        <mxCell id="8ZdpIB1KfxX4hMsNmirL-39" value="" style="ellipse;whiteSpace=wrap;html=1;aspect=fixed;" parent="1" vertex="1">
          <mxGeometry x="630.02" y="3297" width="80" height="80" as="geometry" />
        </mxCell>
        <mxCell id="8ZdpIB1KfxX4hMsNmirL-40" value="&lt;font face=&quot;Times New Roman&quot;&gt;Событие&lt;/font&gt;" style="text;html=1;align=center;verticalAlign=middle;resizable=0;points=[];autosize=1;strokeColor=none;fillColor=none;" parent="1" vertex="1">
          <mxGeometry x="727.52" y="3322" width="70" height="30" as="geometry" />
        </mxCell>
        <mxCell id="8ZdpIB1KfxX4hMsNmirL-41" value="&lt;font color=&quot;#ffffff&quot; face=&quot;Times New Roman&quot; style=&quot;font-size: 27px;&quot;&gt;n&lt;/font&gt;" style="ellipse;whiteSpace=wrap;html=1;aspect=fixed;fillColor=#66B2FF;" parent="1" vertex="1">
          <mxGeometry x="362.5" y="3387" width="80" height="80" as="geometry" />
        </mxCell>
        <mxCell id="8ZdpIB1KfxX4hMsNmirL-42" value="&lt;font face=&quot;Times New Roman&quot;&gt;Ссылка&lt;/font&gt;" style="text;html=1;align=center;verticalAlign=middle;resizable=0;points=[];autosize=1;strokeColor=none;fillColor=none;" parent="1" vertex="1">
          <mxGeometry x="452.5" y="3412" width="60" height="30" as="geometry" />
        </mxCell>
        <mxCell id="YhXAwPTHWb4so9bpkjYg-3" value="" style="ellipse;whiteSpace=wrap;html=1;aspect=fixed;fillColor=#000000;" parent="1" vertex="1">
          <mxGeometry x="479.66" y="210" width="30" height="30" as="geometry" />
        </mxCell>
        <mxCell id="YpSg0bnbWlljTMXTQoFI-1" value="" style="ellipse;whiteSpace=wrap;html=1;aspect=fixed;fillColor=#000000;" parent="1" vertex="1">
          <mxGeometry x="570.0200000000001" y="450" width="30" height="30" as="geometry" />
        </mxCell>
        <mxCell id="wRYcbDbW16RMZCIpdBNf-14" style="edgeStyle=orthogonalEdgeStyle;rounded=0;orthogonalLoop=1;jettySize=auto;html=1;exitX=0;exitY=1;exitDx=0;exitDy=0;" parent="1" source="wRYcbDbW16RMZCIpdBNf-4" edge="1">
          <mxGeometry relative="1" as="geometry">
            <mxPoint x="715.8571428571429" y="600.0000000000001" as="targetPoint" />
          </mxGeometry>
        </mxCell>
        <mxCell id="wRYcbDbW16RMZCIpdBNf-4" value="&lt;font face=&quot;Times New Roman&quot;&gt;&lt;span style=&quot;font-size: 14px;&quot;&gt;Считать таблицу&lt;/span&gt;&lt;/font&gt;" style="ellipse;whiteSpace=wrap;html=1;aspect=fixed;" parent="1" vertex="1">
          <mxGeometry x="696.9999999999999" y="440" width="130" height="130" as="geometry" />
        </mxCell>
        <mxCell id="N7RACuZjBRk8Ios8j_cp-5" value="" style="endArrow=none;html=1;rounded=0;strokeWidth=4;" parent="1" edge="1">
          <mxGeometry width="50" height="50" relative="1" as="geometry">
            <mxPoint x="620" y="600" as="sourcePoint" />
            <mxPoint x="730" y="600" as="targetPoint" />
            <Array as="points" />
          </mxGeometry>
        </mxCell>
        <mxCell id="N7RACuZjBRk8Ios8j_cp-6" value="" style="endArrow=none;html=1;rounded=0;strokeWidth=4;" parent="1" edge="1">
          <mxGeometry width="50" height="50" relative="1" as="geometry">
            <mxPoint x="442.5" y="600" as="sourcePoint" />
            <mxPoint x="552.5" y="600" as="targetPoint" />
            <Array as="points" />
          </mxGeometry>
        </mxCell>
        <mxCell id="N7RACuZjBRk8Ios8j_cp-26" style="edgeStyle=orthogonalEdgeStyle;rounded=0;orthogonalLoop=1;jettySize=auto;html=1;exitX=0.5;exitY=1;exitDx=0;exitDy=0;entryX=0.5;entryY=0;entryDx=0;entryDy=0;" parent="1" source="N7RACuZjBRk8Ios8j_cp-18" target="N7RACuZjBRk8Ios8j_cp-25" edge="1">
          <mxGeometry relative="1" as="geometry">
            <Array as="points">
              <mxPoint x="492" y="831" />
              <mxPoint x="492" y="892" />
            </Array>
          </mxGeometry>
        </mxCell>
        <mxCell id="cQnQrmi3rN2C49d9GW_u-10" style="edgeStyle=orthogonalEdgeStyle;rounded=0;orthogonalLoop=1;jettySize=auto;html=1;exitX=0.5;exitY=1;exitDx=0;exitDy=0;entryX=0.5;entryY=0;entryDx=0;entryDy=0;" edge="1" parent="1" source="N7RACuZjBRk8Ios8j_cp-18" target="N7RACuZjBRk8Ios8j_cp-25">
          <mxGeometry relative="1" as="geometry" />
        </mxCell>
        <mxCell id="N7RACuZjBRk8Ios8j_cp-18" value="&lt;font face=&quot;Times New Roman&quot;&gt;&lt;span style=&quot;font-size: 14px;&quot;&gt;Таблица создана&lt;/span&gt;&lt;/font&gt;" style="ellipse;whiteSpace=wrap;html=1;aspect=fixed;" parent="1" vertex="1">
          <mxGeometry x="427.49999999999983" y="640" width="130" height="130" as="geometry" />
        </mxCell>
        <mxCell id="cQnQrmi3rN2C49d9GW_u-11" style="edgeStyle=orthogonalEdgeStyle;rounded=0;orthogonalLoop=1;jettySize=auto;html=1;exitX=0.5;exitY=1;exitDx=0;exitDy=0;entryX=1;entryY=0.5;entryDx=0;entryDy=0;" edge="1" parent="1" source="N7RACuZjBRk8Ios8j_cp-21" target="N7RACuZjBRk8Ios8j_cp-25">
          <mxGeometry relative="1" as="geometry" />
        </mxCell>
        <mxCell id="N7RACuZjBRk8Ios8j_cp-21" value="&lt;font face=&quot;Times New Roman&quot;&gt;&lt;span style=&quot;font-size: 14px;&quot;&gt;Таблица считана&lt;/span&gt;&lt;/font&gt;" style="ellipse;whiteSpace=wrap;html=1;aspect=fixed;" parent="1" vertex="1">
          <mxGeometry x="609.9999999999999" y="640" width="130" height="130" as="geometry" />
        </mxCell>
        <mxCell id="N7RACuZjBRk8Ios8j_cp-23" style="edgeStyle=orthogonalEdgeStyle;rounded=0;orthogonalLoop=1;jettySize=auto;html=1;exitX=1;exitY=1;exitDx=0;exitDy=0;entryX=0.5;entryY=0;entryDx=0;entryDy=0;" parent="1" target="N7RACuZjBRk8Ios8j_cp-21" edge="1">
          <mxGeometry relative="1" as="geometry">
            <mxPoint x="675.21" y="650" as="targetPoint" />
            <mxPoint x="674.3100000000001" y="600" as="sourcePoint" />
          </mxGeometry>
        </mxCell>
        <mxCell id="N7RACuZjBRk8Ios8j_cp-25" value="&lt;font face=&quot;Times New Roman&quot;&gt;&lt;font style=&quot;font-size: 14px;&quot;&gt;&lt;br&gt;Сток&lt;br&gt;(Конец&lt;br&gt;рассмотрения &lt;br&gt;процесса)&lt;/font&gt;&lt;br&gt;&lt;/font&gt;" style="ellipse;whiteSpace=wrap;html=1;aspect=fixed;" parent="1" vertex="1">
          <mxGeometry x="427.49999999999994" y="820" width="130" height="130" as="geometry" />
        </mxCell>
        <mxCell id="N7RACuZjBRk8Ios8j_cp-36" value="" style="triangle;whiteSpace=wrap;html=1;direction=north;strokeColor=default;gradientColor=none;fillColor=#000000;" parent="1" vertex="1">
          <mxGeometry x="477.83" y="830" width="29.33" height="20" as="geometry" />
        </mxCell>
        <mxCell id="cQnQrmi3rN2C49d9GW_u-5" style="edgeStyle=orthogonalEdgeStyle;rounded=0;orthogonalLoop=1;jettySize=auto;html=1;exitX=1;exitY=0.5;exitDx=0;exitDy=0;" edge="1" parent="1" source="cQnQrmi3rN2C49d9GW_u-3">
          <mxGeometry relative="1" as="geometry">
            <mxPoint x="468" y="600" as="targetPoint" />
            <Array as="points">
              <mxPoint x="468" y="550" />
              <mxPoint x="468" y="550" />
            </Array>
          </mxGeometry>
        </mxCell>
        <mxCell id="cQnQrmi3rN2C49d9GW_u-3" value="&lt;font face=&quot;Times New Roman&quot;&gt;&lt;span style=&quot;font-size: 14px;&quot;&gt;Создать таблицу&lt;/span&gt;&lt;/font&gt;" style="ellipse;whiteSpace=wrap;html=1;aspect=fixed;" vertex="1" parent="1">
          <mxGeometry x="337.5" y="440" width="130" height="130" as="geometry" />
        </mxCell>
        <mxCell id="cQnQrmi3rN2C49d9GW_u-7" value="" style="rounded=0;whiteSpace=wrap;html=1;fillColor=#000000;" vertex="1" parent="1">
          <mxGeometry x="481.24999999999994" y="650" width="22.5" height="22.5" as="geometry" />
        </mxCell>
        <mxCell id="cQnQrmi3rN2C49d9GW_u-8" style="edgeStyle=orthogonalEdgeStyle;rounded=0;orthogonalLoop=1;jettySize=auto;html=1;exitX=1;exitY=1;exitDx=0;exitDy=0;entryX=0.5;entryY=0;entryDx=0;entryDy=0;" edge="1" parent="1">
          <mxGeometry relative="1" as="geometry">
            <mxPoint x="492.59000000000003" y="640" as="targetPoint" />
            <mxPoint x="491.9000000000001" y="600" as="sourcePoint" />
          </mxGeometry>
        </mxCell>
        <mxCell id="cQnQrmi3rN2C49d9GW_u-13" value="" style="rounded=0;whiteSpace=wrap;html=1;fillColor=#000000;" vertex="1" parent="1">
          <mxGeometry x="663.75" y="650" width="22.5" height="22.5" as="geometry" />
        </mxCell>
        <mxCell id="cQnQrmi3rN2C49d9GW_u-18" style="edgeStyle=orthogonalEdgeStyle;rounded=0;orthogonalLoop=1;jettySize=auto;html=1;exitX=0.5;exitY=1;exitDx=0;exitDy=0;entryX=0.5;entryY=0;entryDx=0;entryDy=0;" edge="1" parent="1" source="cQnQrmi3rN2C49d9GW_u-14" target="cQnQrmi3rN2C49d9GW_u-17">
          <mxGeometry relative="1" as="geometry" />
        </mxCell>
        <mxCell id="cQnQrmi3rN2C49d9GW_u-14" value="" style="rounded=1;whiteSpace=wrap;html=1;" vertex="1" parent="1">
          <mxGeometry x="1040" y="180" width="120" height="60" as="geometry" />
        </mxCell>
        <mxCell id="cQnQrmi3rN2C49d9GW_u-15" value="&lt;font face=&quot;Times New Roman&quot; style=&quot;font-size: 14px;&quot;&gt;Начало&lt;/font&gt;&lt;div&gt;&lt;span style=&quot;background-color: initial;&quot;&gt;&lt;font size=&quot;3&quot; style=&quot;&quot; face=&quot;c4uwq_mGRP5g-3G3JrV-&quot;&gt;(Create_Btn)&lt;/font&gt;&lt;/span&gt;&lt;/div&gt;" style="text;html=1;align=center;verticalAlign=middle;whiteSpace=wrap;rounded=0;" vertex="1" parent="1">
          <mxGeometry x="1045" y="180" width="110" height="55" as="geometry" />
        </mxCell>
        <mxCell id="cQnQrmi3rN2C49d9GW_u-17" value="" style="rounded=0;whiteSpace=wrap;html=1;" vertex="1" parent="1">
          <mxGeometry x="1040" y="270" width="120" height="60" as="geometry" />
        </mxCell>
        <mxCell id="cQnQrmi3rN2C49d9GW_u-25" style="edgeStyle=orthogonalEdgeStyle;rounded=0;orthogonalLoop=1;jettySize=auto;html=1;exitX=0.5;exitY=1;exitDx=0;exitDy=0;entryX=0.5;entryY=0;entryDx=0;entryDy=0;" edge="1" parent="1" source="cQnQrmi3rN2C49d9GW_u-19" target="cQnQrmi3rN2C49d9GW_u-23">
          <mxGeometry relative="1" as="geometry" />
        </mxCell>
        <mxCell id="cQnQrmi3rN2C49d9GW_u-19" value="&lt;font style=&quot;font-size: 14px;&quot; face=&quot;Times New Roman&quot;&gt;Создаёт таблицу Excel&lt;/font&gt;" style="text;html=1;align=center;verticalAlign=middle;whiteSpace=wrap;rounded=0;" vertex="1" parent="1">
          <mxGeometry x="1045" y="272.5" width="110" height="55" as="geometry" />
        </mxCell>
        <mxCell id="cQnQrmi3rN2C49d9GW_u-23" value="" style="rounded=1;whiteSpace=wrap;html=1;" vertex="1" parent="1">
          <mxGeometry x="1040" y="360" width="120" height="60" as="geometry" />
        </mxCell>
        <mxCell id="cQnQrmi3rN2C49d9GW_u-24" value="&lt;font style=&quot;font-size: 14px;&quot; face=&quot;Times New Roman&quot;&gt;Конец&lt;br&gt;&lt;/font&gt;&lt;div&gt;&lt;span style=&quot;background-color: initial;&quot;&gt;&lt;font size=&quot;3&quot; style=&quot;&quot; face=&quot;Times New Roman&quot;&gt;(Create_Btn)&lt;/font&gt;&lt;/span&gt;&lt;/div&gt;" style="text;html=1;align=center;verticalAlign=middle;whiteSpace=wrap;rounded=0;" vertex="1" parent="1">
          <mxGeometry x="1045" y="360" width="110" height="55" as="geometry" />
        </mxCell>
        <mxCell id="cQnQrmi3rN2C49d9GW_u-26" style="edgeStyle=orthogonalEdgeStyle;rounded=0;orthogonalLoop=1;jettySize=auto;html=1;exitX=0.5;exitY=1;exitDx=0;exitDy=0;entryX=0.5;entryY=0;entryDx=0;entryDy=0;" edge="1" parent="1" source="cQnQrmi3rN2C49d9GW_u-27" target="cQnQrmi3rN2C49d9GW_u-29">
          <mxGeometry relative="1" as="geometry" />
        </mxCell>
        <mxCell id="cQnQrmi3rN2C49d9GW_u-27" value="" style="rounded=1;whiteSpace=wrap;html=1;" vertex="1" parent="1">
          <mxGeometry x="1270" y="180" width="120" height="60" as="geometry" />
        </mxCell>
        <mxCell id="cQnQrmi3rN2C49d9GW_u-28" value="&lt;font face=&quot;Times New Roman&quot; style=&quot;font-size: 14px;&quot;&gt;Начало&lt;/font&gt;&lt;div&gt;&lt;span style=&quot;background-color: initial;&quot;&gt;&lt;font size=&quot;3&quot; style=&quot;&quot; face=&quot;SztWxlMH81M-61aC1ij7&quot;&gt;(Read_Btn)&lt;/font&gt;&lt;/span&gt;&lt;/div&gt;" style="text;html=1;align=center;verticalAlign=middle;whiteSpace=wrap;rounded=0;" vertex="1" parent="1">
          <mxGeometry x="1275" y="180" width="110" height="55" as="geometry" />
        </mxCell>
        <mxCell id="cQnQrmi3rN2C49d9GW_u-29" value="" style="rounded=0;whiteSpace=wrap;html=1;" vertex="1" parent="1">
          <mxGeometry x="1270" y="270" width="120" height="60" as="geometry" />
        </mxCell>
        <mxCell id="cQnQrmi3rN2C49d9GW_u-30" style="edgeStyle=orthogonalEdgeStyle;rounded=0;orthogonalLoop=1;jettySize=auto;html=1;exitX=0.5;exitY=1;exitDx=0;exitDy=0;entryX=0.5;entryY=0;entryDx=0;entryDy=0;" edge="1" parent="1" source="cQnQrmi3rN2C49d9GW_u-31" target="cQnQrmi3rN2C49d9GW_u-32">
          <mxGeometry relative="1" as="geometry" />
        </mxCell>
        <mxCell id="cQnQrmi3rN2C49d9GW_u-31" value="&lt;font style=&quot;font-size: 14px;&quot; face=&quot;Times New Roman&quot;&gt;Считывает таблицу Excel из папки&lt;/font&gt;" style="text;html=1;align=center;verticalAlign=middle;whiteSpace=wrap;rounded=0;" vertex="1" parent="1">
          <mxGeometry x="1275" y="272.5" width="110" height="55" as="geometry" />
        </mxCell>
        <mxCell id="cQnQrmi3rN2C49d9GW_u-32" value="" style="rounded=1;whiteSpace=wrap;html=1;" vertex="1" parent="1">
          <mxGeometry x="1270" y="360" width="120" height="60" as="geometry" />
        </mxCell>
        <mxCell id="cQnQrmi3rN2C49d9GW_u-33" value="&lt;font style=&quot;font-size: 14px;&quot; face=&quot;Times New Roman&quot;&gt;Конец&lt;br&gt;&lt;/font&gt;&lt;div&gt;&lt;span style=&quot;background-color: initial;&quot;&gt;&lt;font size=&quot;3&quot; style=&quot;&quot; face=&quot;WpK_yBF1z5cRxFJb5P77&quot;&gt;(Create_Btn)&lt;/font&gt;&lt;/span&gt;&lt;/div&gt;" style="text;html=1;align=center;verticalAlign=middle;whiteSpace=wrap;rounded=0;" vertex="1" parent="1">
          <mxGeometry x="1275" y="360" width="110" height="55" as="geometry" />
        </mxCell>
      </root>
    </mxGraphModel>
  </diagram>
</mxfile>
